<?xml version="1.0" encoding="UTF-8" standalone="no"?><!DOCTYPE svg PUBLIC "-//W3C//DTD SVG 1.1//EN" "http://www.w3.org/Graphics/SVG/1.1/DTD/svg11.dtd"><svg width="100%" height="100%" viewBox="0 0 2370 649" version="1.1" xmlns="http://www.w3.org/2000/svg" xmlns:xlink="http://www.w3.org/1999/xlink" xml:space="preserve" xmlns:serif="http://www.serif.com/" style="fill-rule:evenodd;clip-rule:evenodd;stroke-linejoin:round;stroke-miterlimit:2;"><g><path d="M589.999,422.783l-272.571,198.029c-4.395,3.196 -10.3,3.191 -14.691,0l-272.567,-198.029c-4.396,-3.196 -6.225,-8.809 -4.546,-13.975l104.113,-320.425c1.679,-5.167 6.458,-8.638 11.891,-8.638l336.913,0c5.429,0 10.208,3.471 11.887,8.638l104.113,320.425c1.679,5.166 -0.15,10.779 -4.542,13.975m28.317,-21.7l-104.113,-320.425c-5.033,-15.5 -19.366,-25.913 -35.662,-25.913l-336.913,0c-16.3,0 -30.629,10.413 -35.666,25.913l-104.113,320.425c-5.033,15.495 0.438,32.345 13.625,41.925l272.567,198.029c6.592,4.791 14.317,7.183 22.042,7.183c7.725,0 15.45,-2.396 22.041,-7.183l272.571,-198.029c13.183,-9.58 18.654,-26.43 13.621,-41.925" style="fill:#509fef;fill-rule:nonzero;"/><path d="M589.999,225.437l-272.571,-198.029c-4.395,-3.196 -10.3,-3.191 -14.691,0l-272.567,198.029c-4.396,3.196 -6.225,8.809 -4.546,13.975l104.113,320.425c1.679,5.167 6.458,8.638 11.891,8.638l336.913,0c5.429,0 10.208,-3.471 11.887,-8.638l104.113,-320.425c1.679,-5.166 -0.15,-10.779 -4.542,-13.975m28.317,21.7l-104.113,320.426c-5.033,15.5 -19.366,25.912 -35.662,25.912l-336.913,0c-16.3,0 -30.629,-10.413 -35.666,-25.913l-104.113,-320.425c-5.033,-15.495 0.438,-32.345 13.625,-41.925l272.567,-198.029c6.592,-4.791 14.317,-7.183 22.042,-7.183c7.725,0 15.45,2.396 22.041,7.183l272.571,198.029c13.183,9.58 18.654,26.43 13.621,41.925" style="fill:#509fef;fill-rule:nonzero;"/><path d="M852.825,474.329c23.491,0 42.241,-7.517 56.254,-22.567c14.008,-15.037 21.021,-34.929 21.021,-59.654l0,-55.642c0,-24.725 -7.013,-44.604 -21.021,-59.654c-14.013,-15.042 -32.763,-22.562 -56.254,-22.562c-20.613,0 -37.925,5.05 -51.93,15.141c-14.016,10.109 -21.02,23.4 -21.02,39.879l0,110.038c0,16.487 7.004,29.779 21.02,39.875c14.005,10.1 31.317,15.146 51.93,15.146m-140.334,-358.559l67.384,0l0,140.95l3.091,0c7.004,-19.366 18.442,-34.308 34.313,-44.816c15.858,-10.509 34.512,-15.767 55.946,-15.767c40.8,0 72.329,14.742 94.583,44.204c22.258,29.467 33.383,70.784 33.383,123.946c0,53.167 -11.125,94.492 -33.383,123.95c-22.254,29.471 -53.783,44.2 -94.583,44.2c-21.434,0 -40.088,-5.358 -55.946,-16.071c-15.871,-10.712 -27.309,-25.55 -34.313,-44.512l-3.091,0l0,53.166l-67.384,0l0,-409.25Z" style="fill:#071b2b;fill-rule:nonzero;"/><path d="M1100.72,525.02c-23.087,0 -40.291,-5.875 -51.621,-17.62c-11.337,-11.746 -17,-28.125 -17,-49.142l0,-342.488l67.384,0l0,323.854c-0.294,23.255 3.44,30.035 20.17,30.376l24.338,0l0,55.02l-43.271,0Z" style="fill:#071b2b;fill-rule:nonzero;"/><path d="M1354.17,471.855c-2.888,7.834 -6.7,15.454 -11.438,22.875c-4.746,7.421 -10.717,13.908 -17.925,19.471c-7.212,5.566 -15.871,10 -25.967,13.296c-10.104,3.291 -21.745,4.941 -34.925,4.941c-33.387,0 -59.254,-10.708 -77.587,-32.146c-18.342,-21.425 -27.508,-52.133 -27.508,-92.112l0,-204.625l67.383,0l0,195.975c0,49.867 20.608,74.8 61.821,74.8c8.65,0 17.096,-1.133 25.346,-3.404c8.237,-2.263 15.554,-5.659 21.945,-10.2c6.388,-4.529 11.534,-10.296 15.455,-17.309c3.912,-7.004 5.875,-15.241 5.875,-24.729l0,-215.133l67.383,0l0,228.724c0.372,35.227 22.692,41.432 52.012,42.956l0,54.493c-37.597,2.044 -109.535,-1.606 -119.395,-57.873l-2.475,0Z" style="fill:#071b2b;fill-rule:nonzero;"/><path d="M1899.7,474.329c20.6,0 37.912,-5.046 51.925,-15.146c14.004,-10.096 21.02,-23.388 21.02,-39.875l0,-110.038c0,-16.479 -7.016,-29.77 -21.02,-39.879c-14.013,-10.091 -31.325,-15.141 -51.925,-15.141c-23.496,0 -42.259,7.52 -56.263,22.562c-14.008,15.05 -21.012,34.929 -21.012,59.654l0,55.642c0,24.725 7.004,44.617 21.012,59.654c14.004,15.05 32.767,22.567 56.263,22.567m72.945,-2.475l-3.091,0c-7.013,18.962 -18.446,33.8 -34.313,44.512c-15.862,10.713 -34.521,16.071 -55.941,16.071c-40.805,0 -72.33,-14.729 -94.588,-44.2c-22.254,-29.458 -33.383,-70.783 -33.383,-123.95c0,-53.162 11.129,-94.479 33.383,-123.946c22.258,-29.462 53.783,-44.204 94.588,-44.204c21.42,0 40.079,5.258 55.941,15.767c15.867,10.508 27.3,25.45 34.313,44.816l3.091,0l15.455,-53.162l51.929,0l0,321.462l-67.384,0l0,-53.166Z" style="fill:#071b2b;fill-rule:nonzero;"/><path d="M2158.72,525.02c-23.087,0 -40.291,-5.875 -51.62,-17.62c-11.338,-11.746 -17,-28.125 -17,-49.142l0,-342.488l67.383,0l0,323.854c-0.294,23.255 3.44,30.035 20.17,30.376l24.338,0l0,55.02l-43.271,0Z" style="fill:#071b2b;fill-rule:nonzero;"/><path d="M2305.86,525.02c-23.492,0 -41.217,-6.075 -53.163,-18.237c-11.958,-12.154 -17.929,-29.367 -17.929,-51.621l0,-196.587l-50.075,0l0,-55.017l27.204,0c11.121,0 18.85,-2.475 23.184,-7.421c4.325,-4.946 6.487,-12.979 6.487,-24.108l0,-56.259l60.583,0l0,87.788l67.384,0l0,55.017l-67.384,0l0,187.837c0.522,15.026 1.968,23.552 20.401,23.588l42.041,0l0,55.02l-58.733,0Z" style="fill:#071b2b;fill-rule:nonzero;"/><path d="M1475.17,419.53c6.245,-0.464 12.584,-0.208 18.933,0.846c10.662,1.771 21.445,5.638 31.233,12.809c0,0 28.233,25.87 40.85,32.8c14.621,8.033 31.625,12.05 51,12.05c19.779,0 34.512,-3.805 44.2,-11.434c9.683,-7.621 14.533,-18.237 14.533,-31.841c0,-10.292 -3.404,-19.055 -10.204,-26.271c-6.796,-7.204 -18.65,-11.842 -35.546,-13.909l-29.679,-3.712c-32.975,-4.113 -58.829,-13.696 -77.579,-28.746c-18.763,-15.037 -28.129,-37.4 -28.129,-67.075c0,-15.654 2.879,-29.562 8.654,-41.725c5.767,-12.15 13.908,-22.462 24.421,-30.912c10.508,-8.442 23.079,-14.934 37.708,-19.471c14.629,-4.534 30.808,-6.8 48.533,-6.8c28.842,0 52.438,4.537 70.78,13.6c18.337,9.066 34.716,21.633 49.145,37.708l-41.416,39.567c-8.25,-9.896 -19.071,-18.442 -32.454,-25.659c-13.4,-7.204 -28.75,-10.816 -46.055,-10.816c-18.55,0 -32.254,3.708 -41.112,11.129c-8.867,7.417 -13.296,17.104 -13.296,29.054c0,12.363 3.917,21.638 11.75,27.817c7.825,6.183 20.4,10.725 37.708,13.604l29.675,3.704c35.438,5.363 61.296,15.767 77.584,31.221c16.279,15.454 24.421,36.167 24.421,62.133c0,15.667 -2.996,29.779 -8.967,42.346c-5.975,12.575 -14.525,23.392 -25.654,32.454c-11.129,9.067 -24.521,16.075 -40.179,21.021c-15.675,4.942 -33.184,7.417 -52.55,7.417c-30.509,0 -56.055,-5.359 -76.655,-16.075c-15.737,-8.175 -29.895,-18.771 -42.495,-31.763c-5.092,-5.245 -12.127,-7.796 -19.158,-7.423l0,-57.648Z" style="fill:#071b2b;fill-rule:nonzero;"/></g></svg>